<mxfile host="app.diagrams.net" modified="2023-01-29T06:39:19.044Z" agent="5.0 (Windows NT 10.0; Win64; x64) AppleWebKit/537.36 (KHTML, like Gecko) Chrome/108.0.0.0 Safari/537.36" etag="FWGpZ8Dkq2RjsrinxUg4" version="20.8.13" type="github">
  <diagram id="C5RBs43oDa-KdzZeNtuy" name="Page-1">
    <mxGraphModel dx="1434" dy="756" grid="1" gridSize="10" guides="1" tooltips="1" connect="1" arrows="1" fold="1" page="1" pageScale="1" pageWidth="827" pageHeight="1169" math="0" shadow="0">
      <root>
        <mxCell id="WIyWlLk6GJQsqaUBKTNV-0" />
        <mxCell id="WIyWlLk6GJQsqaUBKTNV-1" parent="WIyWlLk6GJQsqaUBKTNV-0" />
        <mxCell id="Mo76R5qrL9pFASk5yp_Z-0" value="伙伴匹配系统" style="rounded=0;whiteSpace=wrap;html=1;fontStyle=1;fontSize=19;" vertex="1" parent="WIyWlLk6GJQsqaUBKTNV-1">
          <mxGeometry x="270" y="100" width="240" height="60" as="geometry" />
        </mxCell>
        <mxCell id="Mo76R5qrL9pFASk5yp_Z-1" value="" style="endArrow=none;html=1;rounded=0;fontSize=19;" edge="1" parent="WIyWlLk6GJQsqaUBKTNV-1">
          <mxGeometry width="50" height="50" relative="1" as="geometry">
            <mxPoint x="400" y="240" as="sourcePoint" />
            <mxPoint x="400" y="170" as="targetPoint" />
          </mxGeometry>
        </mxCell>
        <mxCell id="Mo76R5qrL9pFASk5yp_Z-2" value="" style="endArrow=none;html=1;rounded=0;fontSize=19;" edge="1" parent="WIyWlLk6GJQsqaUBKTNV-1">
          <mxGeometry width="50" height="50" relative="1" as="geometry">
            <mxPoint x="280" y="240" as="sourcePoint" />
            <mxPoint x="400" y="240" as="targetPoint" />
          </mxGeometry>
        </mxCell>
        <mxCell id="Mo76R5qrL9pFASk5yp_Z-3" value="" style="endArrow=none;html=1;rounded=0;fontSize=19;" edge="1" parent="WIyWlLk6GJQsqaUBKTNV-1">
          <mxGeometry width="50" height="50" relative="1" as="geometry">
            <mxPoint x="400" y="240" as="sourcePoint" />
            <mxPoint x="500" y="240" as="targetPoint" />
          </mxGeometry>
        </mxCell>
        <mxCell id="Mo76R5qrL9pFASk5yp_Z-4" value="" style="endArrow=none;html=1;rounded=0;fontSize=19;" edge="1" parent="WIyWlLk6GJQsqaUBKTNV-1">
          <mxGeometry width="50" height="50" relative="1" as="geometry">
            <mxPoint x="280" y="280" as="sourcePoint" />
            <mxPoint x="280" y="240" as="targetPoint" />
          </mxGeometry>
        </mxCell>
        <mxCell id="Mo76R5qrL9pFASk5yp_Z-5" value="组队功能" style="rounded=0;whiteSpace=wrap;html=1;fontSize=19;rotation=1;verticalAlign=middle;align=center;" vertex="1" parent="WIyWlLk6GJQsqaUBKTNV-1">
          <mxGeometry x="270" y="280.01" width="28.86" height="120" as="geometry" />
        </mxCell>
        <mxCell id="Mo76R5qrL9pFASk5yp_Z-6" value="功能" style="rounded=0;whiteSpace=wrap;html=1;fontSize=19;rotation=1;verticalAlign=middle;align=center;" vertex="1" parent="WIyWlLk6GJQsqaUBKTNV-1">
          <mxGeometry x="375.57" y="280.01" width="28.86" height="120" as="geometry" />
        </mxCell>
      </root>
    </mxGraphModel>
  </diagram>
</mxfile>
